<svg width="104" height="30" viewBox="0 0 104 30" fill="none" xmlns="http://www.w3.org/2000/svg">
<path id="Vector" d="M76.795 10.775H88.345C84.388 16.121 81.035 22.886 79.299 29.002H95.937V10.774H103.367V0.649H76.797V10.775H76.795ZM58.138 29.002H77.28V18.874H65.731C69.688 13.53 73.04 6.764 74.776 0.65H58.138V29V29.002ZM37.301 14.825C37.301 10.653 38.673 8.507 41.381 8.507C44.087 8.507 45.459 10.654 45.459 14.825C45.459 18.996 44.087 21.143 41.38 21.143C38.673 21.143 37.301 18.996 37.301 14.825ZM10.245 12.232V7.291H12.628C14.203 7.291 15.011 8.141 15.011 9.761C15.011 11.382 14.203 12.232 12.628 12.232H10.245ZM10.245 22.358V17.093H12.789C14.486 17.093 15.333 17.984 15.333 19.726C15.333 21.467 14.485 22.358 12.789 22.358H10.245ZM0.0699997 29.001H16.384C21.916 29.001 25.672 25.681 25.672 20.82C25.672 17.781 24.056 15.675 20.906 14.34C23.653 13.044 24.945 10.938 24.945 8.264C24.945 3.727 21.431 0.649 16.263 0.649H0.0699997V29.001ZM41.381 29.65C50.144 29.65 55.959 23.736 55.959 14.825C55.959 5.914 50.144 0 41.381 0C32.62 0 26.803 5.914 26.803 14.825C26.803 23.736 32.619 29.65 41.381 29.65Z" fill="#11190C"/>
</svg>
